<!--?xml version="1.0" standalone="no"?-->
              <svg id="sw-js-blob-svg" viewBox="0 0 100 100" xmlns="http://www.w3.org/2000/svg" version="1.1">
                    <defs> 
                        <linearGradient id="sw-gradient" x1="0" x2="1" y1="1" y2="0">
                            <stop id="stop1" stop-color="rgba(137.821, 209.189, 235.718, 1)" offset="0%"></stop>
                            <stop id="stop2" stop-color="rgba(68.558, 102.166, 162.861, 1)" offset="100%"></stop>
                        </linearGradient>
                    </defs>
                <path fill="url(#sw-gradient)" d="M20.8,-32.6C27.6,-28,34.3,-23.3,38.3,-16.8C42.3,-10.3,43.6,-1.9,41.9,5.6C40.2,13.2,35.6,20,30.4,26.7C25.2,33.5,19.5,40.2,12.5,42.1C5.4,44,-2.9,41.1,-10.5,37.9C-18.2,34.8,-25.2,31.3,-31.4,26.1C-37.7,20.9,-43.2,14,-43.8,6.6C-44.4,-0.8,-40,-8.5,-36.3,-16.6C-32.6,-24.6,-29.6,-32.9,-23.6,-38C-17.7,-43,-8.8,-44.7,-0.9,-43.2C7,-41.8,14,-37.2,20.8,-32.6Z" width="100%" height="100%" transform="translate(50 50)" stroke-width="0" style="transition: all 0.3s ease 0s;" stroke="url(#sw-gradient)"></path>
              </svg>