<!--?xml version="1.0" standalone="no"?-->
              <svg id="sw-js-blob-svg" viewBox="0 0 100 100" xmlns="http://www.w3.org/2000/svg" version="1.1">
                    <defs> 
                        <linearGradient id="sw-gradient" x1="0" x2="1" y1="1" y2="0">
                            <stop id="stop1" stop-color="rgba(55, 215.308, 248, 1)" offset="0%"></stop>
                            <stop id="stop2" stop-color="rgba(80.277, 51.321, 242.033, 1)" offset="100%"></stop>
                        </linearGradient>
                    </defs>
                <path fill="url(#sw-gradient)" d="M11.3,-16.8C15.6,-14.9,20.6,-13.3,26.2,-9.5C31.7,-5.7,37.7,0.3,36.5,4.9C35.3,9.5,26.9,12.7,21.4,18C16,23.3,13.5,30.6,8.3,35.3C3,40.1,-5,42.4,-11.9,40.4C-18.7,38.4,-24.3,32.2,-27.1,25.4C-29.8,18.7,-29.7,11.5,-30.5,4.5C-31.3,-2.5,-33.1,-9.2,-30.7,-13.9C-28.4,-18.6,-21.9,-21.3,-16.1,-22.5C-10.3,-23.7,-5.1,-23.3,-0.8,-22.1C3.5,-20.8,7.1,-18.6,11.3,-16.8Z" width="100%" height="100%" transform="translate(50 50)" stroke-width="0" style="transition: all 0.3s ease 0s;" stroke="url(#sw-gradient)"></path>
              </svg>